<svg xmlns="http://www.w3.org/2000/svg" viewBox="0 0 360 97"><g fill="#FFF"><path d="M143.513 19.225h-4.603v-2.27h11.862v2.27h-4.58V30.98h-2.68M152.448 16.323l2.615-.42v7.023c.65-.715 1.82-1.766 3.473-1.766 1.633 0 2.595.946 2.595 3.006v6.813h-2.594v-5.7c0-1.283-.25-1.85-.962-1.85-.837 0-1.904.946-2.51 1.6v5.95h-2.616V16.322zM167.807 21.16c2.406 0 4.058 1.618 4.08 4.688l-1.424.42-4.707.61c.293 1.41 1.234 2.335 2.678 2.335 1.57 0 2.887-1.178 2.887-1.178l.67 1.85s-1.505 1.346-3.994 1.346c-3.243 0-4.917-2.334-4.917-4.983 0-2.796 1.88-5.087 4.727-5.087m-2.114 4.205l3.368-.442s-.04-1.808-1.443-1.808c-1.13 0-1.778.967-1.924 2.25M183.06 16.85h2.574l5.252 14.13h-2.74l-1.13-3.154h-5.398l-1.13 3.154h-2.678l5.25-14.13zm-.648 8.725h3.786l-1.882-5.3-1.904 5.3zM192.206 28.246s1.13.988 2.678.988c1.004 0 1.485-.337 1.485-.82 0-1.304-4.478-1.367-4.478-4.29 0-1.535 1.11-2.965 3.954-2.965 1.757 0 2.824.524 2.824.524l-.545 2.124s-1.045-.65-2.28-.65c-.962 0-1.36.293-1.36.756 0 1.304 4.456 1.345 4.456 4.268 0 1.767-1.422 3.05-3.954 3.05-2.07 0-3.327-.842-3.327-.842l.546-2.144zM200.826 28.246s1.13.988 2.678.988c1.004 0 1.485-.337 1.485-.82 0-1.304-4.478-1.367-4.478-4.29 0-1.535 1.108-2.965 3.954-2.965 1.757 0 2.824.524 2.824.524l-.545 2.124s-1.046-.65-2.28-.65c-.962 0-1.36.293-1.36.756 0 1.304 4.456 1.345 4.456 4.268 0 1.767-1.422 3.05-3.954 3.05-2.07 0-3.326-.842-3.326-.842l.546-2.144zM214.113 21.16c3.41 0 5.105 2.397 5.105 4.836 0 2.314-1.444 5.236-5.19 5.236-3.408 0-5.103-2.44-5.103-5.004 0-2.398 1.485-5.068 5.188-5.068m-.02 8.116c1.38 0 2.425-1.22 2.425-3.007 0-1.515-.753-3.155-2.447-3.155-1.4 0-2.448 1.22-2.448 2.923 0 1.66.797 3.238 2.47 3.238M225.79 21.16c2.133 0 3.388.966 3.388.966l-.92 1.914s-.984-.862-2.28-.862c-1.507 0-2.7 1.114-2.7 3.05 0 1.808 1.047 2.985 2.616 2.985 1.464 0 2.49-.967 2.49-.967l.794 1.766s-1.067 1.22-3.474 1.22c-3.137 0-5.125-2.145-5.125-4.858 0-2.712 2.05-5.215 5.21-5.215M230.77 17.858c0-.862.648-1.472 1.548-1.472.88 0 1.528.61 1.528 1.472 0 .863-.65 1.472-1.528 1.472-.9 0-1.548-.61-1.548-1.472m.23 3.554h2.615v9.568H231v-9.568zM241.043 25.028v-.337c0-.903-.147-1.575-1.318-1.575-1.527 0-3.013 1.135-3.013 1.135l-.627-1.85s1.673-1.24 4.373-1.24c2.447 0 3.2 1.008 3.2 3.11v3.702c0 1.114 1.067 1.114 1.067 1.114l-.753 2.04c-1.57-.042-2.3-.673-2.657-1.41-.272.42-1.13 1.515-2.97 1.515-1.737 0-2.867-1.072-2.867-2.5 0-2.083 2.092-3.24 5.565-3.702m0 3.05V26.54c-2.07.294-2.908.967-2.908 1.976 0 .59.418.8.92.8.754 0 1.423-.568 1.988-1.24M247.07 23.283h-1.485v-1.41l1.57-.524v-2.23l2.53-.505v2.797h2.908v1.87h-2.907v4.374c0 1.01.356 1.43.983 1.43.564 0 1.317-.463 1.84-.82l.71 1.914s-1.36 1.05-3.18 1.05c-1.757 0-2.97-.987-2.97-2.942v-5.005zM254.54 17.858c0-.862.648-1.472 1.548-1.472.88 0 1.527.61 1.527 1.472 0 .863-.648 1.472-1.527 1.472-.9 0-1.548-.61-1.548-1.472m.23 3.554h2.615v9.568h-2.615v-9.568zM264.583 21.16c3.41 0 5.105 2.397 5.105 4.836 0 2.314-1.444 5.236-5.19 5.236-3.408 0-5.103-2.44-5.103-5.004 0-2.398 1.485-5.068 5.188-5.068m-.02 8.116c1.38 0 2.425-1.22 2.425-3.007 0-1.515-.753-3.155-2.447-3.155-1.4 0-2.448 1.22-2.448 2.923 0 1.66.797 3.238 2.47 3.238M271.657 21.622l2.51-.42v1.766c.754-.82 1.988-1.81 3.598-1.81 1.61 0 2.573.947 2.573 3.007v6.814h-2.595v-5.7c0-1.283-.25-1.85-.962-1.85-.814 0-1.82.82-2.51 1.514v6.035h-2.614V21.62zM139.015 46.166l1.485-.526v-.8c0-3.237 1.967-5.046 4.562-5.046 1.778 0 2.907.82 2.907.82l-.922 1.956s-.9-.673-1.946-.673c-1.087 0-1.987.694-1.987 2.754v1.052h2.552v1.873h-2.552v7.696H140.5v-7.695h-1.485v-1.41zM151.757 45.45c3.41 0 5.105 2.398 5.105 4.837 0 2.314-1.444 5.236-5.19 5.236-3.41 0-5.104-2.44-5.104-5.004 0-2.398 1.486-5.07 5.19-5.07m-.022 8.118c1.38 0 2.426-1.22 2.426-3.007 0-1.513-.753-3.153-2.447-3.153-1.402 0-2.45 1.22-2.45 2.923.002 1.66.797 3.238 2.47 3.238M158.83 45.913l2.51-.42v1.976c.398-.674 1.36-2.02 2.846-2.02.523 0 .816.168.816.168l-.42 2.523s-.438-.188-.9-.188c-1.024 0-1.84.988-2.238 1.577v5.74h-2.615v-9.357zM178.833 40.993c3.096 0 4.832 1.157 4.832 1.157l-1.025 2.292s-1.4-1.094-3.912-1.094c-3.076 0-4.937 2.103-4.937 4.9 0 3.07 2.24 4.92 4.896 4.92 2.49 0 4.08-1.283 4.08-1.283l1.087 1.977s-1.778 1.66-5.335 1.66c-4.1 0-7.49-2.606-7.49-7.044 0-4.184 2.993-7.485 7.805-7.485M185.656 40.615l2.615-.42v7.023c.65-.715 1.82-1.766 3.473-1.766 1.633 0 2.595.946 2.595 3.006v6.813h-2.595v-5.698c0-1.283-.25-1.85-.962-1.85-.836 0-1.903.946-2.51 1.6v5.95h-2.614V40.614zM196.663 42.15c0-.864.648-1.473 1.548-1.473.88 0 1.53.61 1.53 1.472 0 .86-.65 1.47-1.53 1.47-.9 0-1.547-.61-1.547-1.47m.23 3.553h2.615v9.568h-2.615v-9.567zM202.144 40.615l2.616-.42V55.27h-2.616M211.79 45.45c.753 0 1.338.17 1.652.295v-5.13l2.594-.422v12.154c0 1.157.44 2.924.44 2.924l-2.428.148s-.188-.715-.293-1.388c-.46.8-1.34 1.493-2.908 1.493-2.49 0-4.058-2.145-4.058-4.752 0-2.69 1.673-5.32 5-5.32m1.653 6.856v-3.7c0-.863-.628-1.2-1.464-1.2-1.55 0-2.47 1.135-2.47 3.196 0 1.83.648 2.965 1.904 2.965 1.024 0 1.735-.82 2.03-1.26M228.55 49.32v-.337c0-.904-.147-1.576-1.318-1.576-1.527 0-3.013 1.135-3.013 1.135l-.628-1.85s1.673-1.24 4.373-1.24c2.447 0 3.2 1.008 3.2 3.11v3.702c0 1.114 1.067 1.114 1.067 1.114l-.753 2.04c-1.57-.042-2.302-.673-2.658-1.41-.272.42-1.13 1.515-2.97 1.515-1.737 0-2.867-1.073-2.867-2.502 0-2.08 2.092-3.237 5.565-3.7m0 3.05v-1.536c-2.07.294-2.908.967-2.908 1.976 0 .59.418.8.92.8.753 0 1.423-.568 1.988-1.24M234.013 45.913l2.51-.42v1.766c.754-.822 1.988-1.81 3.598-1.81 1.612 0 2.574.946 2.574 3.006v6.814H240.1v-5.7c0-1.282-.25-1.85-.962-1.85-.815 0-1.82.82-2.51 1.515v6.035h-2.615v-9.357zM249.642 45.45c.754 0 1.34.17 1.653.295v-5.13l2.595-.422v12.154c0 1.157.44 2.924.44 2.924l-2.428.148s-.188-.715-.293-1.388c-.46.8-1.34 1.493-2.91 1.493-2.49 0-4.057-2.145-4.057-4.752 0-2.69 1.672-5.32 5-5.32m1.652 6.856v-3.7c0-.863-.628-1.2-1.464-1.2-1.547 0-2.468 1.135-2.468 3.196 0 1.83.648 2.965 1.904 2.965 1.025 0 1.736-.82 2.03-1.26M265.65 41.14h2.572l5.252 14.13h-2.74l-1.13-3.153h-5.398l-1.13 3.154h-2.678l5.252-14.13zm-.65 8.727h3.787l-1.882-5.3-1.904 5.3zM279.292 45.45c.754 0 1.34.17 1.653.295v-5.13l2.595-.422v12.154c0 1.157.44 2.924.44 2.924l-2.428.148s-.188-.715-.293-1.388c-.46.8-1.34 1.493-2.91 1.493-2.49 0-4.057-2.145-4.057-4.752 0-2.69 1.672-5.32 5-5.32m1.652 6.856v-3.7c0-.863-.628-1.2-1.464-1.2-1.547 0-2.468 1.135-2.468 3.196 0 1.83.648 2.965 1.904 2.965 1.025 0 1.736-.82 2.03-1.26M290.802 45.45c3.41 0 5.105 2.398 5.105 4.837 0 2.314-1.444 5.236-5.19 5.236-3.408 0-5.103-2.44-5.103-5.004 0-2.398 1.485-5.07 5.188-5.07m-.02 8.118c1.38 0 2.425-1.22 2.425-3.007 0-1.513-.753-3.153-2.447-3.153-1.402 0-2.45 1.22-2.45 2.923 0 1.66.797 3.238 2.47 3.238M297.916 40.615l2.616-.42V55.27h-2.616M307.29 45.45c2.407 0 4.06 1.62 4.08 4.69l-1.423.42-4.706.61c.294 1.41 1.234 2.334 2.678 2.334 1.57 0 2.887-1.178 2.887-1.178l.67 1.85s-1.506 1.346-3.995 1.346c-3.243 0-4.917-2.335-4.917-4.984 0-2.795 1.882-5.087 4.728-5.087m-2.112 4.206l3.368-.442s-.042-1.808-1.444-1.808c-1.13 0-1.778.968-1.924 2.25M313.38 52.537s1.13.988 2.678.988c1.003 0 1.485-.337 1.485-.82 0-1.304-4.477-1.367-4.477-4.29 0-1.535 1.11-2.965 3.954-2.965 1.757 0 2.824.525 2.824.525L319.3 48.1s-1.046-.65-2.28-.65c-.962 0-1.36.293-1.36.756 0 1.304 4.456 1.345 4.456 4.268 0 1.767-1.423 3.05-3.955 3.05-2.07 0-3.326-.842-3.326-.842l.546-2.145zM326.667 45.45c2.134 0 3.39.968 3.39.968l-.92 1.914s-.984-.862-2.28-.862c-1.508 0-2.7 1.114-2.7 3.05 0 1.808 1.046 2.985 2.615 2.985 1.464 0 2.49-.967 2.49-.967l.794 1.766s-1.067 1.22-3.474 1.22c-3.137 0-5.126-2.145-5.126-4.858 0-2.713 2.05-5.215 5.21-5.215M335.853 45.45c2.406 0 4.058 1.62 4.08 4.69l-1.424.42-4.707.61c.293 1.41 1.234 2.334 2.677 2.334 1.57 0 2.887-1.178 2.887-1.178l.67 1.85s-1.506 1.346-3.995 1.346c-3.243 0-4.917-2.335-4.917-4.984 0-2.795 1.883-5.087 4.728-5.087m-2.113 4.206l3.368-.442s-.042-1.808-1.444-1.808c-1.13 0-1.778.968-1.924 2.25M342.006 45.913l2.51-.42v1.766c.754-.822 1.988-1.81 3.598-1.81 1.61 0 2.573.946 2.573 3.006v6.814h-2.595v-5.7c0-1.282-.25-1.85-.962-1.85-.815 0-1.82.82-2.51 1.515v6.035h-2.615v-9.357zM353.85 47.575h-1.486v-1.41l1.57-.524v-2.228l2.53-.505v2.797h2.908v1.87h-2.907v4.374c0 1.01.356 1.43.983 1.43.565 0 1.318-.463 1.84-.82l.712 1.914s-1.36 1.05-3.18 1.05c-1.758 0-2.97-.987-2.97-2.942v-5.005zM140.563 65.535h3.87l3.37 9.735 3.367-9.735h3.807l.503 14.025h-2.615l-.398-10.976-3.87 10.976h-1.757l-3.83-10.955-.355 10.955h-2.594M162.178 69.74c2.406 0 4.058 1.62 4.08 4.69l-1.424.42-4.707.61c.293 1.41 1.234 2.334 2.678 2.334 1.57 0 2.887-1.178 2.887-1.178l.67 1.85s-1.506 1.346-3.995 1.346c-3.243 0-4.917-2.335-4.917-4.983 0-2.798 1.882-5.09 4.728-5.09m-2.114 4.206l3.368-.442s-.042-1.81-1.444-1.81c-1.13 0-1.777.97-1.924 2.252M168.33 70.202l2.51-.42v1.766c.754-.82 1.988-1.81 3.6-1.81 1.61 0 2.572.948 2.572 3.008v6.813h-2.595v-5.7c0-1.282-.25-1.85-.962-1.85-.816 0-1.82.82-2.51 1.514v6.035h-2.616V70.2zM180.173 71.864h-1.485v-1.41l1.57-.525V67.7l2.53-.505v2.797h2.908v1.87h-2.907v4.374c0 1.01.355 1.43.982 1.43.565 0 1.318-.463 1.84-.82l.712 1.914s-1.36 1.05-3.18 1.05c-1.757 0-2.97-.987-2.97-2.942v-5.004zM192.665 73.61v-.338c0-.903-.147-1.576-1.318-1.576-1.527 0-3.013 1.136-3.013 1.136l-.627-1.85s1.673-1.24 4.373-1.24c2.447 0 3.2 1.008 3.2 3.11v3.702c0 1.114 1.067 1.114 1.067 1.114l-.753 2.04c-1.57-.042-2.3-.673-2.657-1.41-.272.422-1.13 1.515-2.97 1.515-1.737 0-2.867-1.073-2.867-2.502 0-2.082 2.092-3.24 5.565-3.7m0 3.048v-1.535c-2.07.294-2.908.967-2.908 1.977 0 .59.418.8.92.8.753 0 1.422-.57 1.988-1.242M198.17 64.904l2.614-.42V79.56h-2.615M208.86 65.535h2.7v5.74h7.092v-5.74h2.678V79.56h-2.678v-6.035h-7.092v6.035h-2.7M228.28 69.74c2.405 0 4.057 1.62 4.078 4.69l-1.422.42-4.707.61c.292 1.41 1.232 2.334 2.676 2.334 1.57 0 2.887-1.178 2.887-1.178l.67 1.85s-1.506 1.346-3.995 1.346c-3.243 0-4.917-2.335-4.917-4.983 0-2.798 1.884-5.09 4.73-5.09m-2.114 4.206l3.368-.442s-.042-1.81-1.444-1.81c-1.13 0-1.778.97-1.924 2.252M239.264 73.61v-.338c0-.903-.147-1.576-1.318-1.576-1.527 0-3.013 1.136-3.013 1.136l-.627-1.85s1.673-1.24 4.373-1.24c2.446 0 3.2 1.008 3.2 3.11v3.702c0 1.114 1.066 1.114 1.066 1.114l-.753 2.04c-1.57-.042-2.3-.673-2.657-1.41-.272.422-1.13 1.515-2.97 1.515-1.737 0-2.867-1.073-2.867-2.502 0-2.082 2.09-3.24 5.564-3.7m0 3.048v-1.535c-2.07.294-2.908.967-2.908 1.977 0 .59.418.8.92.8.753 0 1.423-.57 1.988-1.242M244.768 64.904l2.616-.42V79.56h-2.616M250.627 71.864h-1.485v-1.41l1.57-.525V67.7l2.53-.505v2.797h2.908v1.87h-2.907v4.374c0 1.01.356 1.43.983 1.43.565 0 1.318-.463 1.84-.82l.712 1.914s-1.36 1.05-3.18 1.05c-1.758 0-2.97-.987-2.97-2.942v-5.004zM258.327 64.904l2.615-.42v7.023c.648-.715 1.82-1.767 3.472-1.767 1.633 0 2.595.947 2.595 3.008v6.812h-2.596v-5.7c0-1.282-.25-1.85-.962-1.85-.837 0-1.904.947-2.51 1.6v5.95h-2.615V64.904zM55.323 49.97h5.07l-2.536-7.228M11.13 49.973h5.09l-2.543-7.23"/><path d="M72.18 0c-12.562 0-24 4.83-32.587 12.737h-.003c-.002 0-.003.003-.005.005-1.25-.133-2.517-.204-3.802-.204C16.02 12.538 0 28.64 0 48.5c0 4.177.716 8.184 2.02 11.914l9.914-23.835h3.447l10.022 23.853h-4.865l-2.577-6.168H9.518l-2.642 6.168h-4.85c4.897 13.995 18.157 24.03 33.757 24.03 1.285 0 2.554-.072 3.804-.205l.003.002C48.177 92.17 59.617 97 72.18 97c26.65 0 48.255-21.715 48.255-48.5C120.435 21.714 98.83 0 72.18 0zM36.216 60.94c-6.81 0-12.3-5.712-12.3-12.52 0-6.745 5.555-12.36 12.17-12.36 4.75 0 9.44 2.778 11.268 7.263h-5.01c-1.474-1.808-3.85-2.97-6.227-2.97-4.335 0-7.8 3.775-7.8 8.23 0 4.228 3.594 8.067 7.833 8.067 2.34 0 4.363-1.068 5.968-2.777h5.105c-1.797 4.32-6.418 7.067-11.008 7.067zm28.477-.516l-2.565-6.164h-8.41l-2.634 6.164h-4.847l9.888-23.846h3.434l9.983 23.846h-4.848zm31.105 0h-4.124V42.546L85.54 60.423h-3.72l-6.134-17.876v17.876h-4.123V36.577h5.73l6.355 18.228 6.454-18.228h5.695v23.846zm17.348 0V50.42h-10.672v10.003H98.35V36.577h4.123v9.552h10.672v-9.553h4.124v23.846h-4.125z"/></g></svg>